<?xml version="1.0" standalone="no"?>
<!DOCTYPE svg PUBLIC "-//W3C//DTD SVG 20010904//EN"
 "http://www.w3.org/TR/2001/REC-SVG-20010904/DTD/svg10.dtd">
<svg version="1.0" xmlns="http://www.w3.org/2000/svg"
 width="744.000000pt" height="744.000000pt" viewBox="0 0 744.000000 744.000000"
 preserveAspectRatio="xMidYMid meet">
<metadata>
Created by potrace 1.11, written by Peter Selinger 2001-2013
</metadata>
<g transform="translate(0.000000,744.000000) scale(0.100000,-0.100000)"
fill="#000000" stroke="none">
<path d="M182 7308 c-22 -22 -12 -46 73 -162 82 -112 101 -142 70 -114 -29 27
-110 90 -181 141 -58 42 -84 41 -84 -3 0 -26 50 -84 130 -150 54 -45 90 -83
90 -97 0 -8 -3 -13 -7 -11 -5 2 -21 10 -38 17 -16 8 -67 31 -113 53 -96 44
-108 46 -117 17 -9 -26 -11 -24 120 -104 152 -92 155 -97 45 -72 -71 17 -92
16 -95 -4 -3 -18 11 -26 115 -66 72 -28 72 -27 118 -38 18 -4 35 -12 38 -16 3
-5 15 -9 26 -9 25 0 156 -69 273 -144 265 -168 455 -343 544 -500 64 -113 125
-293 157 -466 2 -14 7 -31 10 -39 2 -8 7 -30 10 -50 3 -20 10 -55 15 -79 5
-23 12 -59 14 -80 3 -20 8 -48 11 -62 3 -14 8 -36 10 -50 12 -64 25 -86 57
-98 19 -7 42 -12 53 -12 41 0 371 -180 619 -338 11 -6 29 -16 40 -22 11 -5 38
-22 61 -37 23 -15 59 -40 81 -54 53 -36 126 -119 169 -191 54 -94 128 -301
178 -503 1 -5 10 -37 20 -69 35 -118 29 -168 -37 -306 -22 -47 -41 -87 -42
-90 -1 -3 -5 -14 -9 -25 -28 -72 -35 -95 -40 -130 -4 -22 -11 -67 -16 -100
-10 -61 -14 -94 -25 -200 -4 -33 -8 -73 -10 -90 -2 -16 -6 -57 -10 -90 -4 -33
-8 -76 -11 -95 -2 -19 -6 -57 -8 -85 -3 -27 -7 -66 -10 -85 -3 -19 -8 -57 -10
-85 -5 -50 -11 -101 -22 -192 -3 -27 -7 -64 -9 -83 -4 -51 -15 -135 -26 -215
-6 -38 -12 -88 -15 -110 -4 -38 -11 -91 -19 -145 -2 -14 -6 -43 -9 -65 -9 -66
-27 -186 -36 -245 -26 -166 -41 -268 -45 -297 -2 -19 -11 -75 -19 -126 -8 -50
-18 -110 -21 -132 -3 -22 -7 -51 -10 -65 -12 -75 -44 -303 -50 -353 -3 -31
-15 -103 -26 -160 -10 -56 -19 -126 -19 -154 l0 -53 1049 0 1050 0 19 53 c25
67 30 94 37 247 4 69 8 139 10 155 12 130 18 182 20 197 3 16 14 260 21 453 4
137 4 749 -1 860 -2 50 -6 182 -10 295 -17 562 -29 756 -50 860 -3 14 -8 41
-11 60 -3 19 -15 70 -26 114 -17 70 -17 80 -4 95 11 12 17 48 21 124 7 152 14
164 98 187 32 9 61 26 87 52 57 58 138 183 150 231 25 98 41 106 119 59 71
-44 84 -47 406 -103 133 -23 131 -23 230 -39 39 -6 81 -13 95 -15 48 -9 215
-37 240 -40 14 -2 52 -8 85 -14 33 -6 78 -13 100 -16 22 -4 54 -10 72 -15 18
-4 83 -7 145 -5 105 3 144 7 208 20 68 14 110 14 110 0 0 -30 20 -24 44 12 32
48 39 90 25 150 -21 95 -22 158 -4 192 17 33 30 101 40 201 3 30 10 89 15 130
5 41 12 100 14 130 3 30 9 84 13 120 9 76 9 231 0 312 -6 67 2 78 65 83 24 1
108 17 188 35 343 76 376 87 489 158 65 41 86 60 86 81 0 9 8 28 18 42 16 24
27 68 31 124 1 21 -19 25 -60 11 -19 -6 -21 -3 -17 19 4 16 0 27 -9 30 -18 7
-95 -22 -198 -75 -48 -24 -107 -44 -161 -54 -147 -28 -151 -25 -109 77 30 73
33 118 8 133 -18 11 -54 -24 -83 -82 -16 -33 -43 -82 -62 -110 -18 -28 -42
-71 -53 -96 -23 -54 -36 -66 -79 -74 -22 -5 -42 -1 -65 11 -32 17 -37 17 -150
-4 -198 -38 -198 -38 -426 -56 -336 -27 -571 -25 -690 5 -36 9 -179 39 -215
45 -11 2 -54 9 -95 15 -115 18 -122 19 -172 28 -26 5 -78 27 -115 49 -37 22
-99 55 -136 73 l-68 33 -84 -12 c-156 -24 -192 -18 -268 42 -36 28 -48 29 -88
12 -13 -5 -20 2 -29 30 -22 66 -20 85 9 91 61 13 71 24 131 144 16 30 29 60
30 65 1 6 5 15 10 20 20 26 53 176 55 252 5 234 -89 410 -262 491 -50 23 -71
27 -148 27 -78 0 -97 -4 -147 -28 -114 -56 -243 -242 -275 -397 -8 -39 -2
-194 11 -267 23 -128 36 -165 67 -194 19 -18 29 -37 29 -56 0 -45 -11 -54 -62
-49 -37 4 -57 -1 -100 -24 -59 -31 -104 -33 -157 -5 -124 63 -285 111 -441
130 -25 3 -52 7 -60 10 -8 2 -42 7 -75 10 -49 5 -197 33 -265 50 -79 20 -189
65 -350 143 -80 38 -188 88 -240 110 -52 22 -124 54 -160 70 -36 16 -87 40
-115 52 -27 12 -68 30 -90 40 -22 10 -69 30 -105 45 -201 84 -410 189 -451
227 -49 45 -91 123 -129 242 -25 79 -69 255 -70 285 0 3 -7 14 -14 24 -11 15
-18 16 -34 8 -22 -11 -45 -67 -36 -83 10 -16 6 -180 -5 -191 -6 -6 -56 37
-148 130 -121 122 -200 193 -214 193 -3 0 -10 -5 -17 -12z"/>
</g>
</svg>
